<svg width="135" height="135" viewBox="0 0 135 135" fill="none" xmlns="http://www.w3.org/2000/svg">
<path fill-rule="evenodd" clip-rule="evenodd" d="M0 0H15V15H0V0Z" transform="translate(120 120)" fill="#343434"/>
<path fill-rule="evenodd" clip-rule="evenodd" d="M0 0H15V15H0V0Z" transform="translate(90 120)" fill="#343434"/>
<path fill-rule="evenodd" clip-rule="evenodd" d="M0 0H15V15H0V0Z" transform="translate(60 120)" fill="#343434"/>
<path fill-rule="evenodd" clip-rule="evenodd" d="M0 0H15V15H0V0Z" transform="translate(30 120)" fill="#343434"/>
<path fill-rule="evenodd" clip-rule="evenodd" d="M0 0H15V15H0V0Z" transform="translate(30 90)" fill="#343434"/>
<path fill-rule="evenodd" clip-rule="evenodd" d="M0 0H15V15H0V0Z" transform="translate(60 90)" fill="#343434"/>
<path fill-rule="evenodd" clip-rule="evenodd" d="M0 0H15V15H0V0Z" transform="translate(90 90)" fill="#343434"/>
<path fill-rule="evenodd" clip-rule="evenodd" d="M0 0H15V15H0V0Z" transform="translate(60 60)" fill="#343434"/>
<path fill-rule="evenodd" clip-rule="evenodd" d="M0 0H15V15H0V0Z" transform="translate(120 90)" fill="#343434"/>
<path fill-rule="evenodd" clip-rule="evenodd" d="M0 0H15V15H0V0Z" transform="translate(120 60)" fill="#343434"/>
<path fill-rule="evenodd" clip-rule="evenodd" d="M0 0H15V15H0V0Z" transform="translate(120 30)" fill="#343434"/>
<path fill-rule="evenodd" clip-rule="evenodd" d="M0 0H15V15H0V0Z" transform="translate(90 60)" fill="#343434"/>
<path fill-rule="evenodd" clip-rule="evenodd" d="M0 0H15V15H0V0Z" transform="translate(90 30)" fill="#343434"/>
<path fill-rule="evenodd" clip-rule="evenodd" d="M0 0H15V15H0V0Z" transform="translate(120)" fill="#343434"/>
<path fill-rule="evenodd" clip-rule="evenodd" d="M0 0H15V15H0V0Z" transform="translate(0 120)" fill="#343434"/>
</svg>
